<svg width="21" height="20" viewBox="0 0 21 20" fill="none" xmlns="http://www.w3.org/2000/svg">
<path fill="currentColor" d="M11.4583 17.7083V6.07292C12.3437 5.76042 13.0521 5.05208 13.3646 4.16667H16.6667L13.7708 10.9271C13.5937 11.3333 13.5312 11.8021 13.6562 12.2292C14.0625 13.5833 15.4896 14.5833 17.1875 14.5833C18.8854 14.5833 20.3229 13.5833 20.7187 12.2292C20.8437 11.8021 20.7812 11.3333 20.6042 10.9271L17.7083 4.16667H18.75C19.3229 4.16667 19.7917 3.69792 19.7917 3.125C19.7917 2.55208 19.3229 2.08333 18.75 2.08333H13.3646C12.9375 0.864583 11.7812 0 10.4167 0C9.05208 0 7.89583 0.864583 7.46875 2.08333H2.08333C1.51042 2.08333 1.04167 2.55208 1.04167 3.125C1.04167 3.69792 1.51042 4.16667 2.08333 4.16667H3.125L0.229167 10.9271C0.0520834 11.3333 -0.0104168 11.8021 0.114583 12.2292C0.510417 13.5833 1.94792 14.5833 3.64583 14.5833C5.34375 14.5833 6.78125 13.5833 7.17708 12.2292C7.30208 11.8021 7.23958 11.3333 7.0625 10.9271L4.16667 4.16667H7.46875C7.78125 5.05208 8.48958 5.76042 9.375 6.07292V17.7083M9.375 17.7083H1.04167C0.46875 17.7083 0 18.1771 0 18.75C0 19.3229 0.46875 19.7917 1.04167 19.7917H19.7917C20.3646 19.7917 20.8333 19.3229 20.8333 18.75C20.8333 18.1771 20.3646 17.7083 19.7917 17.7083H11.4583M19.1354 11.4583H15.2396L17.1875 6.91667L19.1354 11.4583ZM5.59375 11.4583H1.69792L3.64583 6.91667L5.59375 11.4583ZM10.4167 4.16667C9.84375 4.16667 9.375 3.69792 9.375 3.125C9.375 2.55208 9.84375 2.08333 10.4167 2.08333C10.9896 2.08333 11.4583 2.55208 11.4583 3.125C11.4583 3.69792 10.9896 4.16667 10.4167 4.16667Z"/>
</svg>
