<svg width="48" height="48" viewBox="0 0 48 48" fill="none" xmlns="http://www.w3.org/2000/svg">
<path fill-rule="evenodd" clip-rule="evenodd" d="M14 4H20C24.444 4 31.514 6.216 33.898 13.368C34.988 16.64 34.542 19.462 34.09 22.33C34.05 22.57 34.012 22.8113 33.976 23.054C33.542 25.882 33.116 29.21 33.726 34H36C36.5304 34 37.0391 34.2107 37.4142 34.5858C37.7893 34.9609 38 35.4696 38 36V42C38 42.5304 37.7893 43.0391 37.4142 43.4142C37.0391 43.7893 36.5304 44 36 44H12C11.4696 44 10.9609 43.7893 10.5858 43.4142C10.2107 43.0391 9.99999 42.5304 9.99999 42V36C9.99999 35.4696 10.2107 34.9609 10.5858 34.5858C10.9609 34.2107 11.4696 34 12 34H14.212C14.676 31.712 16.012 28.564 19.34 25.288C19.704 24.928 19.92 24.514 20.01 24.104C17.8964 25.4258 15.6869 26.5877 13.4 27.58C12.8532 27.8171 12.2476 27.8836 11.6623 27.7709C11.0771 27.6581 10.5395 27.3713 10.12 26.948L7.16599 23.994C6.67527 23.5037 6.36962 22.8585 6.30107 22.1682C6.23251 21.4779 6.40529 20.7852 6.78999 20.208L13.692 9.856L12.212 6.896C12.0592 6.59108 11.9869 6.25216 12.002 5.91144C12.0171 5.57072 12.1191 5.23952 12.2983 4.94931C12.4775 4.65911 12.7279 4.41955 13.0257 4.2534C13.3236 4.08724 13.6589 4.00001 14 4ZM18 18C18.5304 18 19.0391 17.7893 19.4142 17.4142C19.7893 17.0391 20 16.5304 20 16C20 15.4696 19.7893 14.9609 19.4142 14.5858C19.0391 14.2107 18.5304 14 18 14C17.4696 14 16.9609 14.2107 16.5858 14.5858C16.2107 14.9609 16 15.4696 16 16C16 16.5304 16.2107 17.0391 16.5858 17.4142C16.9609 17.7893 17.4696 18 18 18Z" fill="black"/>
</svg>
