<svg width="48" height="48" viewBox="0 0 48 48" fill="none" xmlns="http://www.w3.org/2000/svg">
<path d="M39.675 5.325C38.97 4.62 37.83 4.62 37.1325 5.325L33.525 8.925C33.345 9.105 33.2025 9.3225 33.1125 9.5625L31.9575 12.6375L26.145 18.4575C22.7625 16.2525 18.6975 16.1925 16.32 18.5775C15.495 19.4025 14.97 20.4225 14.715 21.5475C14.4375 22.7925 13.2825 23.85 12.0075 23.9175C10.0875 24.015 8.31003 24.72 6.96003 26.0625C3.60003 29.4225 4.23003 35.4975 8.36253 39.63C12.495 43.7625 18.57 44.4 21.93 41.04C23.2725 39.6975 23.985 37.9125 24.075 35.9925C24.1425 34.7175 25.2 33.57 26.445 33.285C27.57 33.03 28.59 32.4975 29.415 31.68C31.8 29.295 31.74 25.2375 29.535 21.855L35.355 16.035L38.43 14.88C38.67 14.79 38.8875 14.6475 39.0675 14.4675L42.6675 10.8675C43.3725 10.1625 43.3725 9.0225 42.6675 8.325L39.675 5.325ZM20.4 24C22.3875 24 24 25.6125 24 27.6C24 29.5875 22.3875 31.2 20.4 31.2C18.4125 31.2 16.8 29.5875 16.8 27.6C16.8 25.6125 18.4125 24 20.4 24Z" fill="black"/>
</svg>
