<svg width="48" height="48" viewBox="0 0 48 48" fill="none" xmlns="http://www.w3.org/2000/svg">
<path d="M43.972 19.48L43.956 19.304C43.7787 16.7824 42.6535 14.4213 40.8065 12.6953C38.9596 10.9694 36.5279 10.0064 34 10H14C11.4367 9.98841 8.96797 10.9675 7.10941 12.7329C5.25085 14.4983 4.14616 16.9135 4.02601 19.474C4.00734 19.63 3.99868 19.7987 4.00001 19.98V33C4.00001 34.85 4.74601 36.656 6.04401 37.952C7.36114 39.2617 9.14252 39.9979 11 40C14.6 40 16.008 38 18 34C18.292 33.416 19.984 30 24 30C27.992 30 29.706 33.414 30 34C32.008 38 33.4 40 37 40C38.85 40 40.656 39.254 41.952 37.956C43.2618 36.6389 43.9979 34.8575 44 33V20C44 19.812 43.9907 19.6387 43.972 19.48ZM14 24.062C13.4673 24.074 12.9376 23.9795 12.442 23.7841C11.9463 23.5886 11.4947 23.296 11.1137 22.9236C10.7326 22.5512 10.4298 22.1064 10.2231 21.6153C10.0163 21.1243 9.90971 20.5968 9.90958 20.064C9.90945 19.5312 10.0158 19.0037 10.2223 18.5126C10.4288 18.0214 10.7314 17.5765 11.1122 17.2038C11.4931 16.8312 11.9445 16.5385 12.4401 16.3427C12.9357 16.147 13.4653 16.0522 13.998 16.064C15.0431 16.0871 16.0377 16.5184 16.7688 17.2657C17.4998 18.0129 17.9093 19.0166 17.9096 20.062C17.9098 21.1074 17.5008 22.1113 16.7702 22.8589C16.0395 23.6065 15.0451 24.0384 14 24.062ZM34 14.062C34.5304 14.062 35.0392 14.2727 35.4142 14.6478C35.7893 15.0229 36 15.5316 36 16.062C36 16.5924 35.7893 17.1011 35.4142 17.4762C35.0392 17.8513 34.5304 18.062 34 18.062C33.4696 18.062 32.9609 17.8513 32.5858 17.4762C32.2107 17.1011 32 16.5924 32 16.062C32 15.5316 32.2107 15.0229 32.5858 14.6478C32.9609 14.2727 33.4696 14.062 34 14.062ZM30 22.062C29.4696 22.062 28.9609 21.8513 28.5858 21.4762C28.2107 21.1011 28 20.5924 28 20.062C28 19.5316 28.2107 19.0229 28.5858 18.6478C28.9609 18.2727 29.4696 18.062 30 18.062C30.5304 18.062 31.0392 18.2727 31.4142 18.6478C31.7893 19.0229 32 19.5316 32 20.062C32 20.5924 31.7893 21.1011 31.4142 21.4762C31.0392 21.8513 30.5304 22.062 30 22.062ZM34 26.062C33.4696 26.062 32.9609 25.8513 32.5858 25.4762C32.2107 25.1011 32 24.5924 32 24.062C32 23.5316 32.2107 23.0229 32.5858 22.6478C32.9609 22.2727 33.4696 22.062 34 22.062C34.5304 22.062 35.0392 22.2727 35.4142 22.6478C35.7893 23.0229 36 23.5316 36 24.062C36 24.5924 35.7893 25.1011 35.4142 25.4762C35.0392 25.8513 34.5304 26.062 34 26.062ZM38 22.062C37.4696 22.062 36.9609 21.8513 36.5858 21.4762C36.2107 21.1011 36 20.5924 36 20.062C36 19.5316 36.2107 19.0229 36.5858 18.6478C36.9609 18.2727 37.4696 18.062 38 18.062C38.5304 18.062 39.0392 18.2727 39.4142 18.6478C39.7893 19.0229 40 19.5316 40 20.062C40 20.5924 39.7893 21.1011 39.4142 21.4762C39.0392 21.8513 38.5304 22.062 38 22.062Z" fill="black"/>
</svg>
