<svg width="25" height="25" viewBox="0 0 25 25" fill="none" xmlns="http://www.w3.org/2000/svg">
<path fill="currentColor" fill-rule="evenodd" clip-rule="evenodd" d="M12.5 2.34375C16.751 2.34375 20.1823 5.75937 20.1823 9.95521C20.1823 12.3229 19.0917 14.4396 17.374 15.8391C17.188 15.9904 17.06 16.2012 17.0115 16.4359C16.8167 17.3812 16.5427 18.4714 16.3474 19.2203C16.3062 19.3776 16.2 19.4484 16.099 19.4589C15.4161 19.5266 14.2625 19.6026 12.5 19.6026C10.7375 19.6026 9.58385 19.5271 8.90104 19.4589C8.8 19.4484 8.69375 19.3776 8.65261 19.2203C8.45729 18.4714 8.18386 17.3812 7.98854 16.4359C7.9401 16.201 7.81205 15.99 7.62604 15.8385C5.90833 14.4401 4.81771 12.3229 4.81771 9.95521C4.81771 5.75937 8.24896 2.34375 12.5 2.34375ZM22.2656 9.95521C22.2656 4.59271 17.8854 0.260414 12.5 0.260414C7.11458 0.260414 2.73438 4.59271 2.73438 9.95521C2.73438 12.8443 4.00833 15.4375 6.02344 17.2109C6.21109 18.06 6.41547 18.9053 6.63646 19.7463C6.81667 20.4365 7.28802 21.0224 7.93646 21.3245L8.01615 22.0589C8.13594 23.1672 8.93177 24.174 10.15 24.3339C10.7568 24.4135 11.5458 24.4792 12.5 24.4792C13.5036 24.4792 14.2828 24.4062 14.8552 24.3203C15.9161 24.1594 16.6135 23.3167 16.7906 22.3729C16.8458 22.0797 16.9073 21.7391 16.9708 21.3656C17.6672 21.0776 18.175 20.4687 18.3635 19.7458C18.5845 18.905 18.7889 18.0598 18.9766 17.2109C20.9911 15.4375 22.2656 12.8443 22.2656 9.95521ZM7.94271 9.95521C7.94271 8.74654 8.42285 7.58737 9.27751 6.73271C10.1322 5.87806 11.2913 5.39791 12.5 5.39791C12.7763 5.39791 13.0412 5.28817 13.2366 5.09282C13.4319 4.89747 13.5417 4.63251 13.5417 4.35625C13.5417 4.07998 13.4319 3.81503 13.2366 3.61968C13.0412 3.42433 12.7763 3.31458 12.5 3.31458C8.83229 3.31458 5.85938 6.2875 5.85938 9.95521C5.85938 10.2315 5.96912 10.4964 6.16447 10.6918C6.35982 10.8871 6.62478 10.9969 6.90104 10.9969C7.17731 10.9969 7.44226 10.8871 7.63761 10.6918C7.83296 10.4964 7.94271 10.2315 7.94271 9.95521Z"/>
</svg>
