<svg width="48" height="48" viewBox="0 0 48 48" fill="none" xmlns="http://www.w3.org/2000/svg">
<path d="M22.5 9C21.669 9 21 9.669 21 10.5V12H7.5C7.10218 12 6.72064 12.158 6.43934 12.4393C6.15804 12.7206 6 13.1022 6 13.5C6 13.8978 6.15804 14.2794 6.43934 14.5607C6.72064 14.842 7.10218 15 7.5 15H40.5C40.8978 15 41.2794 14.842 41.5607 14.5607C41.842 14.2794 42 13.8978 42 13.5C42 13.1022 41.842 12.7206 41.5607 12.4393C41.2794 12.158 40.8978 12 40.5 12H27V10.5C27 9.669 26.331 9 25.5 9H22.5ZM9 18V34.5C9 36.993 11.007 39 13.5 39H34.5C36.993 39 39 36.993 39 34.5V18H9Z" fill="black"/>
</svg>
