<svg viewBox="0 0 92 24" fill="none" xmlns="http://www.w3.org/2000/svg">
<path d="M13.75 13.5781H4.40625V20H15.3281V23.5469H0V0.796875H15.2812V4.375H4.40625V10.1094H13.75V13.5781ZM21.8281 6.64062L21.9531 8.6875C22.276 7.95833 22.7188 7.38542 23.2812 6.96875C23.8542 6.54167 24.5469 6.32812 25.3594 6.32812C25.7552 6.32812 26.1094 6.375 26.4219 6.46875C26.7344 6.5625 27.0052 6.70833 27.2344 6.90625C27.4115 7.05208 27.5625 7.22917 27.6875 7.4375C27.8229 7.63542 27.9375 7.86458 28.0312 8.125C28.1771 7.875 28.3385 7.65104 28.5156 7.45312C28.7031 7.24479 28.9062 7.06771 29.125 6.92188C29.3958 6.73438 29.7031 6.58854 30.0469 6.48438C30.3906 6.38021 30.7656 6.32812 31.1719 6.32812C31.6823 6.32812 32.1562 6.42188 32.5938 6.60938C33.0417 6.79688 33.4323 7.09375 33.7656 7.5C34.0885 7.91667 34.3385 8.45312 34.5156 9.10938C34.7031 9.75521 34.7969 10.5469 34.7969 11.4844V23.5469H30.8438V11.4688C30.8438 11.1458 30.8073 10.8802 30.7344 10.6719C30.6719 10.4635 30.5833 10.2969 30.4688 10.1719C30.3542 10.0573 30.2188 9.97917 30.0625 9.9375C29.9167 9.88542 29.7656 9.85938 29.6094 9.85938C29.4427 9.85938 29.2917 9.88021 29.1562 9.92188C29.0312 9.96354 28.9115 10.0208 28.7969 10.0938C28.7031 10.1667 28.6198 10.25 28.5469 10.3438C28.474 10.4271 28.4115 10.526 28.3594 10.6406C28.3594 10.6615 28.3594 10.7083 28.3594 10.7812C28.3594 10.8542 28.3594 10.9531 28.3594 11.0781V23.5469H24.5312V11.4531C24.5312 11.1302 24.5 10.8646 24.4375 10.6562C24.375 10.4479 24.2917 10.2865 24.1875 10.1719C24.0729 10.0573 23.9427 9.97917 23.7969 9.9375C23.651 9.88542 23.4948 9.85938 23.3281 9.85938C23.1406 9.85938 22.974 9.89062 22.8281 9.95312C22.6823 10.0156 22.5521 10.1042 22.4375 10.2188C22.3542 10.3021 22.2812 10.401 22.2188 10.5156C22.1562 10.6302 22.099 10.7552 22.0469 10.8906V23.5469H18.0938V6.64062H21.8281ZM39.5 6.64062H48.7031V20.0156H53.2812V23.5469H39.5V20.0156H44.3125V10.1875H39.5V6.64062ZM44 2.3125C44 1.97917 44.0573 1.67188 44.1719 1.39062C44.2969 1.09896 44.4688 0.848958 44.6875 0.640625C44.9062 0.442708 45.1667 0.286458 45.4688 0.171875C45.7812 0.0572917 46.125 0 46.5 0C47.2708 0 47.8802 0.21875 48.3281 0.65625C48.7865 1.08333 49.0156 1.63542 49.0156 2.3125C49.0156 2.98958 48.7865 3.54688 48.3281 3.98438C47.8802 4.41146 47.2708 4.625 46.5 4.625C46.125 4.625 45.7812 4.56771 45.4688 4.45312C45.1667 4.33854 44.9062 4.17708 44.6875 3.96875C44.4688 3.77083 44.2969 3.53125 44.1719 3.25C44.0573 2.95833 44 2.64583 44 2.3125ZM68.125 23.5469C68.0208 23.3385 67.9323 23.099 67.8594 22.8281C67.7865 22.5573 67.724 22.2708 67.6719 21.9688C67.4323 22.2292 67.1562 22.474 66.8438 22.7031C66.5312 22.9323 66.1875 23.1302 65.8125 23.2969C65.4271 23.474 65.0052 23.6094 64.5469 23.7031C64.0885 23.8073 63.5938 23.8594 63.0625 23.8594C62.1979 23.8594 61.401 23.7344 60.6719 23.4844C59.9531 23.2344 59.3333 22.8854 58.8125 22.4375C58.2917 21.9896 57.8854 21.4583 57.5938 20.8438C57.3021 20.2188 57.1562 19.5417 57.1562 18.8125C57.1562 17.875 57.3385 17.0469 57.7031 16.3281C58.0677 15.599 58.6146 15 59.3438 14.5312C60 14.1042 60.8073 13.7812 61.7656 13.5625C62.7344 13.3333 63.8438 13.2188 65.0938 13.2188H67.5156V12.2188C67.5156 11.8229 67.4531 11.4688 67.3281 11.1562C67.2031 10.8333 67.0156 10.5573 66.7656 10.3281C66.5052 10.0885 66.1771 9.90625 65.7812 9.78125C65.3958 9.64583 64.9427 9.57812 64.4219 9.57812C63.9635 9.57812 63.5677 9.63542 63.2344 9.75C62.901 9.85417 62.6302 10.0052 62.4219 10.2031C62.2344 10.3802 62.0938 10.5938 62 10.8438C61.9167 11.0938 61.875 11.3698 61.875 11.6719H57.5312C57.5312 10.9531 57.6875 10.2708 58 9.625C58.3229 8.97917 58.7917 8.41146 59.4062 7.92188C60.0104 7.43229 60.75 7.04688 61.625 6.76562C62.5104 6.47396 63.5208 6.32812 64.6562 6.32812C65.6771 6.32812 66.625 6.45312 67.5 6.70312C68.3854 6.95312 69.151 7.32292 69.7969 7.8125C70.4427 8.30208 70.9479 8.92188 71.3125 9.67188C71.6771 10.4115 71.8594 11.2708 71.8594 12.25V19.5C71.8594 20.4062 71.9167 21.1562 72.0312 21.75C72.1458 22.3438 72.3125 22.8542 72.5312 23.2812V23.5469H68.125ZM63.9844 20.5C64.4219 20.5 64.8281 20.4479 65.2031 20.3438C65.5781 20.2396 65.9167 20.1042 66.2188 19.9375C66.5208 19.7708 66.7812 19.5833 67 19.375C67.2188 19.1562 67.3906 18.9375 67.5156 18.7188V15.8125H65.2969C64.6198 15.8125 64.0417 15.8802 63.5625 16.0156C63.0833 16.1406 62.6927 16.3177 62.3906 16.5469C62.0885 16.7865 61.8646 17.0729 61.7188 17.4062C61.5729 17.7292 61.5 18.0833 61.5 18.4688C61.5 18.7708 61.5521 19.0521 61.6562 19.3125C61.7708 19.5625 61.9323 19.776 62.1406 19.9531C62.349 20.1198 62.6042 20.2552 62.9062 20.3594C63.2188 20.4531 63.5781 20.5 63.9844 20.5ZM76.7812 23.5469V6.64062H80.7188L80.9844 8.98438C81.2031 8.67188 81.4427 8.38542 81.7031 8.125C81.9635 7.86458 82.2396 7.63021 82.5312 7.42188C83.0312 7.06771 83.5781 6.79688 84.1719 6.60938C84.7656 6.42188 85.3958 6.32812 86.0625 6.32812C86.9167 6.32812 87.6979 6.45312 88.4062 6.70312C89.1146 6.95312 89.7292 7.34896 90.25 7.89062C90.7604 8.44271 91.1562 9.15104 91.4375 10.0156C91.7292 10.8698 91.875 11.9115 91.875 13.1406V23.5469H87.5312V13.2031C87.5312 12.5365 87.4531 11.9896 87.2969 11.5625C87.151 11.125 86.9375 10.7812 86.6562 10.5312C86.375 10.2812 86.0365 10.1094 85.6406 10.0156C85.2448 9.91146 84.7969 9.85938 84.2969 9.85938C83.8802 9.85938 83.4948 9.90625 83.1406 10C82.7969 10.0938 82.4896 10.2344 82.2188 10.4219C82 10.5573 81.8021 10.7188 81.625 10.9062C81.4479 11.0938 81.2865 11.3021 81.1406 11.5312V23.5469H76.7812Z"/>
</svg>
